<?xml version="1.0" encoding="UTF-8" standalone="no"?>
<!DOCTYPE svg PUBLIC "-//W3C//DTD SVG 1.1//EN"
 "http://www.w3.org/Graphics/SVG/1.1/DTD/svg11.dtd">
<!-- Generated by graphviz version 2.43.0 (0)
 -->
<!-- Title: sourcetree Pages: 1 -->
<svg width="286pt" height="116pt"
 viewBox="0.00 0.00 285.50 116.00" xmlns="http://www.w3.org/2000/svg" xmlns:xlink="http://www.w3.org/1999/xlink">
<g id="graph0" class="graph" transform="scale(1 1) rotate(0) translate(4 112)">
<title>sourcetree</title>
<polygon fill="white" stroke="transparent" points="-4,4 -4,-112 281.5,-112 281.5,4 -4,4"/>
<!-- mulle&#45;objc&#45;debug -->
<g id="node1" class="node">
<title>mulle&#45;objc&#45;debug</title>
<polygon fill="yellow" stroke="black" points="197,-108 58,-108 58,-72 197,-72 197,-108"/>
<text text-anchor="middle" x="127.5" y="-86.3" font-family="Times,serif" font-size="14.00">mulle&#45;objc&#45;debug</text>
</g>
<!-- mulle&#45;fprintf -->
<g id="node2" class="node">
<title>mulle&#45;fprintf</title>
<polygon fill="lightgrey" stroke="black" points="107,-36 0,-36 0,0 107,0 107,-36"/>
<text text-anchor="middle" x="53.5" y="-14.3" font-family="Times,serif" font-size="14.00">mulle&#45;fprintf</text>
</g>
<!-- mulle&#45;objc&#45;debug&#45;&gt;mulle&#45;fprintf -->
<g id="edge1" class="edge">
<title>mulle&#45;objc&#45;debug&#45;&gt;mulle&#45;fprintf</title>
<path fill="none" stroke="black" d="M109.21,-71.7C100.07,-63.05 88.86,-52.45 78.9,-43.03"/>
<polygon fill="black" stroke="black" points="81.25,-40.43 71.58,-36.1 76.44,-45.52 81.25,-40.43"/>
</g>
<!-- mulle&#45;objc&#45;runtime -->
<g id="node3" class="node">
<title>mulle&#45;objc&#45;runtime</title>
<polygon fill="lightgrey" stroke="black" points="277.5,-36 125.5,-36 125.5,0 277.5,0 277.5,-36"/>
<text text-anchor="middle" x="201.5" y="-14.3" font-family="Times,serif" font-size="14.00">mulle&#45;objc&#45;runtime</text>
</g>
<!-- mulle&#45;objc&#45;debug&#45;&gt;mulle&#45;objc&#45;runtime -->
<g id="edge2" class="edge">
<title>mulle&#45;objc&#45;debug&#45;&gt;mulle&#45;objc&#45;runtime</title>
<path fill="none" stroke="black" d="M145.79,-71.7C154.93,-63.05 166.14,-52.45 176.1,-43.03"/>
<polygon fill="black" stroke="black" points="178.56,-45.52 183.42,-36.1 173.75,-40.43 178.56,-45.52"/>
</g>
</g>
</svg>
