<?xml version="1.0" encoding="UTF-8" standalone="no"?>
<!DOCTYPE svg PUBLIC "-//W3C//DTD SVG 1.1//EN"
 "http://www.w3.org/Graphics/SVG/1.1/DTD/svg11.dtd">
<!-- Generated by graphviz version 2.43.0 (0)
 -->
<!-- Title: sourcetree Pages: 1 -->
<svg width="599pt" height="260pt"
 viewBox="0.00 0.00 599.00 260.00" xmlns="http://www.w3.org/2000/svg" xmlns:xlink="http://www.w3.org/1999/xlink">
<g id="graph0" class="graph" transform="scale(1 1) rotate(0) translate(4 256)">
<title>sourcetree</title>
<polygon fill="white" stroke="transparent" points="-4,4 -4,-256 595,-256 595,4 -4,4"/>
<!-- mulle&#45;objc&#45;debug -->
<g id="node1" class="node">
<title>mulle&#45;objc&#45;debug</title>
<polygon fill="yellow" stroke="black" points="350.5,-252 211.5,-252 211.5,-216 350.5,-216 350.5,-252"/>
<text text-anchor="middle" x="281" y="-230.3" font-family="Times,serif" font-size="14.00">mulle&#45;objc&#45;debug</text>
</g>
<!-- mulle&#45;fprintf -->
<g id="node6" class="node">
<title>mulle&#45;fprintf</title>
<polygon fill="lightgrey" stroke="black" points="260.5,-180 153.5,-180 153.5,-144 260.5,-144 260.5,-180"/>
<text text-anchor="middle" x="207" y="-158.3" font-family="Times,serif" font-size="14.00">mulle&#45;fprintf</text>
</g>
<!-- mulle&#45;objc&#45;debug&#45;&gt;mulle&#45;fprintf -->
<g id="edge4" class="edge">
<title>mulle&#45;objc&#45;debug&#45;&gt;mulle&#45;fprintf</title>
<path fill="none" stroke="black" d="M262.71,-215.7C253.57,-207.05 242.36,-196.45 232.4,-187.03"/>
<polygon fill="black" stroke="black" points="234.75,-184.43 225.08,-180.1 229.94,-189.52 234.75,-184.43"/>
</g>
<!-- mulle&#45;objc&#45;runtime -->
<g id="node8" class="node">
<title>mulle&#45;objc&#45;runtime</title>
<polygon fill="lightgrey" stroke="black" points="463,-180 311,-180 311,-144 463,-144 463,-180"/>
<text text-anchor="middle" x="387" y="-158.3" font-family="Times,serif" font-size="14.00">mulle&#45;objc&#45;runtime</text>
</g>
<!-- mulle&#45;objc&#45;debug&#45;&gt;mulle&#45;objc&#45;runtime -->
<g id="edge5" class="edge">
<title>mulle&#45;objc&#45;debug&#45;&gt;mulle&#45;objc&#45;runtime</title>
<path fill="none" stroke="black" d="M306.93,-215.88C320.66,-206.81 337.71,-195.55 352.54,-185.76"/>
<polygon fill="black" stroke="black" points="354.55,-188.62 360.97,-180.19 350.7,-182.78 354.55,-188.62"/>
</g>
<!-- mulle&#45;concurrent -->
<g id="node2" class="node">
<title>mulle&#45;concurrent</title>
<polygon fill="lightgrey" stroke="black" points="354.5,-108 215.5,-108 215.5,-72 354.5,-72 354.5,-108"/>
<text text-anchor="middle" x="285" y="-86.3" font-family="Times,serif" font-size="14.00">mulle&#45;concurrent</text>
</g>
<!-- mulle&#45;aba -->
<g id="node3" class="node">
<title>mulle&#45;aba</title>
<polygon fill="lightgrey" stroke="black" points="328,-36 242,-36 242,0 328,0 328,-36"/>
<text text-anchor="middle" x="285" y="-14.3" font-family="Times,serif" font-size="14.00">mulle&#45;aba</text>
</g>
<!-- mulle&#45;concurrent&#45;&gt;mulle&#45;aba -->
<g id="edge1" class="edge">
<title>mulle&#45;concurrent&#45;&gt;mulle&#45;aba</title>
<path fill="none" stroke="black" d="M285,-71.7C285,-63.98 285,-54.71 285,-46.11"/>
<polygon fill="black" stroke="black" points="288.5,-46.1 285,-36.1 281.5,-46.1 288.5,-46.1"/>
</g>
<!-- mulle&#45;data -->
<g id="node4" class="node">
<title>mulle&#45;data</title>
<polygon fill="lightgrey" stroke="black" points="465,-108 373,-108 373,-72 465,-72 465,-108"/>
<text text-anchor="middle" x="419" y="-86.3" font-family="Times,serif" font-size="14.00">mulle&#45;data</text>
</g>
<!-- src/farmhash -->
<g id="node5" class="node">
<title>src/farmhash</title>
<polygon fill="lightgrey" stroke="black" points="474,-36 364,-36 364,0 474,0 474,-36"/>
<text text-anchor="middle" x="419" y="-14.3" font-family="Times,serif" font-size="14.00">src/farmhash</text>
</g>
<!-- mulle&#45;data&#45;&gt;src/farmhash -->
<g id="edge2" class="edge">
<title>mulle&#45;data&#45;&gt;src/farmhash</title>
<path fill="none" stroke="black" d="M419,-71.7C419,-63.98 419,-54.71 419,-46.11"/>
<polygon fill="black" stroke="black" points="422.5,-46.1 419,-36.1 415.5,-46.1 422.5,-46.1"/>
</g>
<!-- mulle&#45;sprintf -->
<g id="node7" class="node">
<title>mulle&#45;sprintf</title>
<polygon fill="lightgrey" stroke="black" points="197.5,-108 88.5,-108 88.5,-72 197.5,-72 197.5,-108"/>
<text text-anchor="middle" x="143" y="-86.3" font-family="Times,serif" font-size="14.00">mulle&#45;sprintf</text>
</g>
<!-- mulle&#45;fprintf&#45;&gt;mulle&#45;sprintf -->
<g id="edge3" class="edge">
<title>mulle&#45;fprintf&#45;&gt;mulle&#45;sprintf</title>
<path fill="none" stroke="black" d="M191.18,-143.7C183.43,-135.22 173.96,-124.86 165.48,-115.58"/>
<polygon fill="black" stroke="black" points="167.97,-113.12 158.64,-108.1 162.8,-117.85 167.97,-113.12"/>
</g>
<!-- mulle&#45;buffer -->
<g id="node10" class="node">
<title>mulle&#45;buffer</title>
<polygon fill="lightgrey" stroke="black" points="104,-36 0,-36 0,0 104,0 104,-36"/>
<text text-anchor="middle" x="52" y="-14.3" font-family="Times,serif" font-size="14.00">mulle&#45;buffer</text>
</g>
<!-- mulle&#45;sprintf&#45;&gt;mulle&#45;buffer -->
<g id="edge9" class="edge">
<title>mulle&#45;sprintf&#45;&gt;mulle&#45;buffer</title>
<path fill="none" stroke="black" d="M120.51,-71.7C109.04,-62.88 94.94,-52.03 82.52,-42.47"/>
<polygon fill="black" stroke="black" points="84.3,-39.43 74.24,-36.1 80.03,-44.98 84.3,-39.43"/>
</g>
<!-- mulle&#45;utf -->
<g id="node11" class="node">
<title>mulle&#45;utf</title>
<polygon fill="lightgrey" stroke="black" points="203.5,-36 122.5,-36 122.5,0 203.5,0 203.5,-36"/>
<text text-anchor="middle" x="163" y="-14.3" font-family="Times,serif" font-size="14.00">mulle&#45;utf</text>
</g>
<!-- mulle&#45;sprintf&#45;&gt;mulle&#45;utf -->
<g id="edge10" class="edge">
<title>mulle&#45;sprintf&#45;&gt;mulle&#45;utf</title>
<path fill="none" stroke="black" d="M147.94,-71.7C150.17,-63.9 152.85,-54.51 155.33,-45.83"/>
<polygon fill="black" stroke="black" points="158.73,-46.68 158.11,-36.1 152,-44.76 158.73,-46.68"/>
</g>
<!-- mulle&#45;objc&#45;runtime&#45;&gt;mulle&#45;concurrent -->
<g id="edge6" class="edge">
<title>mulle&#45;objc&#45;runtime&#45;&gt;mulle&#45;concurrent</title>
<path fill="none" stroke="black" d="M362.05,-143.88C348.96,-134.89 332.74,-123.76 318.56,-114.03"/>
<polygon fill="black" stroke="black" points="320.27,-110.96 310.05,-108.19 316.31,-116.73 320.27,-110.96"/>
</g>
<!-- mulle&#45;objc&#45;runtime&#45;&gt;mulle&#45;data -->
<g id="edge7" class="edge">
<title>mulle&#45;objc&#45;runtime&#45;&gt;mulle&#45;data</title>
<path fill="none" stroke="black" d="M394.91,-143.7C398.55,-135.73 402.95,-126.1 406.99,-117.26"/>
<polygon fill="black" stroke="black" points="410.21,-118.65 411.18,-108.1 403.84,-115.74 410.21,-118.65"/>
</g>
<!-- mulle&#45;vararg -->
<g id="node9" class="node">
<title>mulle&#45;vararg</title>
<polygon fill="lightgrey" stroke="black" points="591,-108 483,-108 483,-72 591,-72 591,-108"/>
<text text-anchor="middle" x="537" y="-86.3" font-family="Times,serif" font-size="14.00">mulle&#45;vararg</text>
</g>
<!-- mulle&#45;objc&#45;runtime&#45;&gt;mulle&#45;vararg -->
<g id="edge8" class="edge">
<title>mulle&#45;objc&#45;runtime&#45;&gt;mulle&#45;vararg</title>
<path fill="none" stroke="black" d="M423.69,-143.88C444.02,-134.39 469.47,-122.51 491.1,-112.42"/>
<polygon fill="black" stroke="black" points="492.84,-115.47 500.43,-108.07 489.88,-109.13 492.84,-115.47"/>
</g>
</g>
</svg>
