<?xml version="1.0" encoding="UTF-8" standalone="no"?>
<!DOCTYPE svg PUBLIC "-//W3C//DTD SVG 1.1//EN"
 "http://www.w3.org/Graphics/SVG/1.1/DTD/svg11.dtd">
<!-- Generated by graphviz version 2.43.0 (0)
 -->
<!-- Title: sourcetree Pages: 1 -->
<svg width="160pt" height="188pt"
 viewBox="0.00 0.00 160.00 188.00" xmlns="http://www.w3.org/2000/svg" xmlns:xlink="http://www.w3.org/1999/xlink">
<g id="graph0" class="graph" transform="scale(1 1) rotate(0) translate(4 184)">
<title>sourcetree</title>
<polygon fill="white" stroke="transparent" points="-4,4 -4,-184 156,-184 156,4 -4,4"/>
<!-- mulle&#45;objc&#45;debug -->
<g id="node1" class="node">
<title>mulle&#45;objc&#45;debug</title>
<polygon fill="yellow" stroke="black" points="145.5,-180 6.5,-180 6.5,-144 145.5,-144 145.5,-180"/>
<text text-anchor="middle" x="76" y="-158.3" font-family="Times,serif" font-size="14.00">mulle&#45;objc&#45;debug</text>
</g>
<!-- mulle&#45;objc&#45;runtime -->
<g id="node3" class="node">
<title>mulle&#45;objc&#45;runtime</title>
<g id="a_node3"><a xlink:href="https://github.com/mulle-objc/mulle-objc-runtime" xlink:title="mulle&#45;objc&#45;runtime">
<polygon fill="lightgrey" stroke="black" points="152,-108 0,-108 0,-72 152,-72 152,-108"/>
<text text-anchor="middle" x="76" y="-86.3" font-family="Times,serif" font-size="14.00">mulle&#45;objc&#45;runtime</text>
</a>
</g>
</g>
<!-- mulle&#45;objc&#45;debug&#45;&gt;mulle&#45;objc&#45;runtime -->
<g id="edge1" class="edge">
<title>mulle&#45;objc&#45;debug&#45;&gt;mulle&#45;objc&#45;runtime</title>
<path fill="none" stroke="black" d="M76,-143.7C76,-135.98 76,-126.71 76,-118.11"/>
<polygon fill="black" stroke="black" points="79.5,-118.1 76,-108.1 72.5,-118.1 79.5,-118.1"/>
</g>
<!-- mulle&#45;core -->
<g id="node2" class="node">
<title>mulle&#45;core</title>
<g id="a_node2"><a xlink:href="https://github.com/mulle-core/mulle-core" xlink:title="mulle&#45;core">
<polygon fill="lightgrey" stroke="black" points="122,-36 30,-36 30,0 122,0 122,-36"/>
<text text-anchor="middle" x="76" y="-14.3" font-family="Times,serif" font-size="14.00">mulle&#45;core</text>
</a>
</g>
</g>
<!-- mulle&#45;objc&#45;runtime&#45;&gt;mulle&#45;core -->
<g id="edge2" class="edge">
<title>mulle&#45;objc&#45;runtime&#45;&gt;mulle&#45;core</title>
<path fill="none" stroke="black" d="M76,-71.7C76,-63.98 76,-54.71 76,-46.11"/>
<polygon fill="black" stroke="black" points="79.5,-46.1 76,-36.1 72.5,-46.1 79.5,-46.1"/>
</g>
</g>
</svg>
